<svg xmlns="http://www.w3.org/2000/svg" width="80" height="80" viewBox="0 0 80 80" fill="none">
  <path d="M40 10C42.5 10 45 20 45 25C45 30 42.5 35 40 35C37.5 35 35 30 35 25C35 20 37.5 10 40 10Z" fill="#F9A8D4"/>
  <path d="M40 70C42.5 70 45 60 45 55C45 50 42.5 45 40 45C37.5 45 35 50 35 55C35 60 37.5 70 40 70Z" fill="#F9A8D4"/>
  <path d="M10 40C10 37.5 20 35 25 35C30 35 35 37.5 35 40C35 42.5 30 45 25 45C20 45 10 42.5 10 40Z" fill="#F9A8D4"/>
  <path d="M70 40C70 37.5 60 35 55 35C50 35 45 37.5 45 40C45 42.5 50 45 55 45C60 45 70 42.5 70 40Z" fill="#F9A8D4"/>
  <path d="M20 20C21.5 18.5 30 23 33.5 26.5C37 30 38.5 33.5 37 35C35.5 36.5 32 35 28.5 31.5C25 28 18.5 21.5 20 20Z" fill="#F9A8D4"/>
  <path d="M60 60C61.5 58.5 53 52 49.5 48.5C46 45 42.5 43.5 41 45C39.5 46.5 41 50 44.5 53.5C48 57 58.5 61.5 60 60Z" fill="#F9A8D4"/>
  <path d="M20 60C18.5 58.5 25 52 28.5 48.5C32 45 35.5 43.5 37 45C38.5 46.5 37 50 33.5 53.5C30 57 21.5 61.5 20 60Z" fill="#F9A8D4"/>
  <path d="M60 20C58.5 18.5 50 23 46.5 26.5C43 30 41.5 33.5 43 35C44.5 36.5 48 35 51.5 31.5C55 28 61.5 21.5 60 20Z" fill="#F9A8D4"/>
  <circle cx="40" cy="40" r="8" fill="#DB2777"/>
</svg> 